<svg xmlns="http://www.w3.org/2000/svg" viewBox="0 0 42 53" fill="none"><script xmlns=""/>
<path d="M20.9296 12.8933C20.9296 14.0802 20.777 15.2251 20.4719 16.328C20.1785 17.4189 19.7561 18.4439 19.2045 19.403C18.653 20.35 17.9958 21.2192 17.233 22.0104C16.4702 22.7897 15.6194 23.461 14.6806 24.0244C13.7418 24.5879 12.7326 25.0254 11.653 25.3372C10.5851 25.6368 9.47024 25.7867 8.30845 25.7867H0.704104V0H8.30845C9.47024 0 10.5851 0.155847 11.653 0.467541C12.7326 0.767243 13.7418 1.19882 14.6806 1.76227C15.6194 2.32572 16.4702 3.00305 17.233 3.79428C17.9958 4.57351 18.653 5.44266 19.2045 6.40172C19.7561 7.34878 20.1785 8.37379 20.4719 9.4767C20.777 10.5677 20.9296 11.7065 20.9296 12.8933ZM15.8777 12.8933C15.8777 11.8264 15.6781 10.8254 15.2791 9.89025C14.8918 8.95521 14.3521 8.14001 13.6597 7.44473C12.9791 6.73739 12.1752 6.17993 11.2481 5.77233C10.3327 5.36473 9.35285 5.16093 8.30845 5.16093H5.79128V20.6257H8.30845C9.35285 20.6257 10.3327 20.4279 11.2481 20.0323C12.1752 19.6248 12.9791 19.0733 13.6597 18.378C14.3521 17.6707 14.8918 16.8495 15.2791 15.9144C15.6781 14.9673 15.8777 13.9603 15.8777 12.8933ZM42 15.9863C42 17.4249 41.7477 18.7676 41.2431 20.0144C40.7385 21.2491 40.0519 22.3221 39.1836 23.2332C38.3152 24.1323 37.2942 24.8456 36.1207 25.3731C34.9589 25.8886 33.7091 26.1464 32.3713 26.1464C31.0453 26.1464 29.7955 25.8886 28.622 25.3731C27.4602 24.8456 26.4392 24.1323 25.5591 23.2332C24.6907 22.3221 24.0042 21.2491 23.4996 20.0144C22.995 18.7676 22.7427 17.4249 22.7427 15.9863C22.7427 14.5237 22.995 13.1691 23.4996 11.9223C24.0042 10.6755 24.6907 9.60253 25.5591 8.70347C26.4392 7.79237 27.4602 7.07905 28.622 6.56355C29.7955 6.04806 31.0453 5.79031 32.3713 5.79031C33.7091 5.79031 34.9589 6.03607 36.1207 6.52759C37.2942 7.00712 38.3152 7.69646 39.1836 8.5956C40.0519 9.48269 40.7385 10.5556 41.2431 11.8144C41.7477 13.0612 42 14.4518 42 15.9863ZM37.1593 15.9863C37.1593 15.1951 37.0302 14.4818 36.772 13.8464C36.5255 13.1991 36.1852 12.6476 35.7511 12.192C35.3169 11.7245 34.8064 11.3708 34.2196 11.131C33.6446 10.8793 33.0285 10.7534 32.3713 10.7534C31.7142 10.7534 31.0922 10.8793 30.5054 11.131C29.9304 11.3708 29.4258 11.7245 28.9916 12.192C28.5692 12.6476 28.2347 13.1991 27.9883 13.8464C27.7418 14.4818 27.6186 15.1951 27.6186 15.9863C27.6186 16.7296 27.7418 17.4189 27.9883 18.0543C28.2347 18.6896 28.5692 19.2411 28.9916 19.7086C29.4258 20.1762 29.9304 20.5478 30.5054 20.8235C31.0922 21.0873 31.7142 21.2192 32.3713 21.2192C33.0285 21.2192 33.6446 21.0933 34.2196 20.8415C34.8064 20.5898 35.3169 20.2361 35.7511 19.7806C36.1852 19.325 36.5255 18.7736 36.772 18.1262C37.0302 17.4789 37.1593 16.7655 37.1593 15.9863ZM19.2574 52.6403H18.0956L16.2297 49.9969C15.772 50.4165 15.285 50.8121 14.7687 51.1838C14.264 51.5434 13.7301 51.8611 13.1668 52.1368C12.6035 52.4006 12.0226 52.6103 11.4242 52.7662C10.8374 52.922 10.2389 53 9.62864 53C8.30259 53 7.05281 52.7482 5.8793 52.2447C4.71752 51.7292 3.69656 51.0219 2.81643 50.1228C1.94803 49.2116 1.26152 48.1387 0.756917 46.9039C0.252305 45.6571 0 44.3025 0 42.84C0 41.3893 0.252305 40.0407 0.756917 38.7939C1.26152 37.5471 1.94803 36.4682 2.81643 35.5571C3.69656 34.646 4.71752 33.9327 5.8793 33.4172C7.05281 32.9017 8.30259 32.6439 9.62864 32.6439C10.0511 32.6439 10.4854 32.6799 10.9313 32.7518C11.3889 32.8238 11.829 32.9436 12.2514 33.1115C12.6857 33.2673 13.0905 33.4771 13.466 33.7409C13.8416 34.0046 14.1584 34.3283 14.4166 34.7119V25.7208H19.2574V52.6403ZM14.4166 42.84C14.4166 42.1686 14.2875 41.5212 14.0293 40.8978C13.7829 40.2625 13.4426 39.705 13.0084 39.2255C12.5742 38.734 12.0637 38.3444 11.477 38.0566C10.902 37.757 10.2858 37.607 9.62864 37.607C8.97147 37.607 8.34953 37.727 7.76281 37.9667C7.18773 38.2065 6.68315 38.5541 6.24895 39.0097C5.82649 39.4533 5.49203 39.9987 5.2456 40.6461C4.99917 41.2934 4.87594 42.0248 4.87594 42.84C4.87594 43.5472 4.99917 44.2186 5.2456 44.854C5.49203 45.4893 5.82649 46.0468 6.24895 46.5263C6.68315 47.0058 7.18773 47.3834 7.76281 47.6592C8.34953 47.9349 8.97147 48.0728 9.62864 48.0728C10.2858 48.0728 10.902 47.929 11.477 47.6412C12.0637 47.3416 12.5742 46.9519 13.0084 46.4723C13.4426 45.9808 13.7829 45.4234 14.0293 44.8C14.2875 44.1646 14.4166 43.5113 14.4166 42.84ZM41.1551 42.84C41.1551 44.2785 40.9028 45.6212 40.3982 46.868C39.8935 48.1027 39.207 49.1757 38.3386 50.0868C37.4703 50.986 36.4493 51.6992 35.2758 52.2267C34.114 52.7422 32.8642 53 31.5264 53C30.2004 53 28.9505 52.7422 27.777 52.2267C26.6152 51.6992 25.5943 50.986 24.7142 50.0868C23.8457 49.1757 23.1593 48.1027 22.6547 46.868C22.15 45.6212 21.8978 44.2785 21.8978 42.84C21.8978 41.3774 22.15 40.0227 22.6547 38.7759C23.1593 37.5292 23.8457 36.4562 24.7142 35.5571C25.5943 34.646 26.6152 33.9327 27.777 33.4172C28.9505 32.9017 30.2004 32.6439 31.5264 32.6439C32.8642 32.6439 34.114 32.8897 35.2758 33.3812C36.4493 33.8607 37.4703 34.5501 38.3386 35.4492C39.207 36.3363 39.8935 37.4092 40.3982 38.6681C40.9028 39.9148 41.1551 41.3055 41.1551 42.84ZM36.3143 42.84C36.3143 42.0487 36.1852 41.3354 35.9271 40.7C35.6806 40.0527 35.3403 39.5012 34.9061 39.0456C34.4719 38.5781 33.9615 38.2244 33.3747 37.9847C32.7997 37.7329 32.1836 37.607 31.5264 37.607C30.8692 37.607 30.2473 37.7329 29.6605 37.9847C29.0855 38.2244 28.5809 38.5781 28.1467 39.0456C27.7242 39.5012 27.3898 40.0527 27.1434 40.7C26.8969 41.3354 26.7737 42.0487 26.7737 42.84C26.7737 43.5832 26.8969 44.2726 27.1434 44.9079C27.3898 45.5433 27.7242 46.0948 28.1467 46.5623C28.5809 47.0298 29.0855 47.4015 29.6605 47.6771C30.2473 47.9409 30.8692 48.0728 31.5264 48.0728C32.1836 48.0728 32.7997 47.9469 33.3747 47.6952C33.9615 47.4434 34.4719 47.0897 34.9061 46.6342C35.3403 46.1786 35.6806 45.6272 35.9271 44.9798C36.1852 44.3325 36.3143 43.6192 36.3143 42.84Z" fill="url(#paint0_linear_5_12)"/>
<defs>
<linearGradient id="paint0_linear_5_12" x1="0" y1="0" x2="43.5" y2="54" gradientUnits="userSpaceOnUse">
<stop stop-color="#5B80F9"/>
<stop offset="1" stop-color="#95D6A3"/>
</linearGradient>
</defs>
<script xmlns=""/></svg>